<svg xmlns="http://www.w3.org/2000/svg" fill="none" viewBox="0 0 256 256"><g clip-path="url(#a)"><path fill="url(#b)" d="M184 32H72c-4.2435 0-8.3131 1.6857-11.3137 4.6863C57.6857 39.6869 56 43.7565 56 48v176c.0007 1.428.3835 2.829 1.1086 4.059.7251 1.23 1.7661 2.243 3.015 2.935 1.2489.692 2.6602 1.037 4.0874.999 1.4272-.037 2.8183-.456 4.029-1.213L128 193.43l59.77 37.35c1.211.754 2.601 1.171 4.026 1.207 1.426.036 2.836-.309 4.083-1 1.247-.692 2.287-1.704 3.012-2.933.724-1.228 1.107-2.628 1.109-4.054V48c0-4.2435-1.686-8.3131-4.686-11.3137C192.313 33.6857 188.243 32 184 32Z"/></g><defs><linearGradient id="b" x1="128" x2="128" y1="32" y2="231.996" gradientUnits="userSpaceOnUse"><stop stop-color="#F2EFE7"/><stop offset=".5" stop-color="#9ACBD0"/><stop offset=".75" stop-color="#48A6A7"/><stop offset="1" stop-color="#006A71"/></linearGradient><clipPath id="a"><path fill="#fff" d="M0 0h256v256H0z"/></clipPath></defs></svg>
